<svg xmlns="http://www.w3.org/2000/svg" fill="none" viewBox="0 0 1000 1000"><path fill="url(#a)" stroke="#000" stroke-width="35" d="M784.841 17.5c43.265 0 80.886 22.374 107.174 50.498 26 27.816 43.485 64.026 43.485 95.583v461.581c0 46.124-22.535 84.574-50.557 111.076-27.546 26.053-62.921 42.896-92.092 42.896H550.653c-52.046 73.62-87.505 116.012-128.119 152.199-12.045 10.734-22.98 19.187-36.627 29.983-4.54 3.593-11.56 8.08-19.2 11.919-7.466 3.752-17.071 7.675-26.532 8.882-8.992 1.147-24.043.293-32.405-13.73-6.992-11.725-5.127-26.798-.791-41.308 7.128-24.957 10.143-38.65 13.669-56.179 4.032-25.242 5.42-40.212 6.164-69.482v-22.64h-116.66c-41.078 0-77.203-23.636-102.245-51.068-24.7-27.058-42.407-61.997-42.407-90.028V166.571c0-36.212 17.488-73.312 44.712-101.118C137.611 37.468 176.225 17.5 220.164 17.5z"/><path fill="#000" d="M695.734 476.705c-8.356 25.58-25.554 57.945-43.584 75.131q-27.046 25.78-63.986 38.369-36.941 12.59-81.138 12.59-64.645 0-112.141-24.581-46.835-24.58-72.562-70.143-25.066-45.563-25.066-109.112t25.066-109.113q25.727-45.562 72.562-70.143 47.495-24.58 110.822-24.581 44.856 0 81.137 11.391c24.187 7.195 46.624 17.777 63.335 32.965 17.151 15.188 36.638 46.591 44.554 69.773l-91.397 20.164q-11.216-35.972-34.302-50.96-23.088-15.587-59.369-15.587-35.622 0-62.667 15.587-26.386 15.588-40.899 46.163-14.512 29.976-14.512 74.341 0 43.764 13.193 74.34 13.853 30.575 40.239 46.163t64.646 15.587c23.747 0 41.265-7.381 58.416-18.972 17.591-11.591 32.511-39.713 39.547-63.294z"/><defs><radialGradient id="a" cx="0" cy="0" r="1" gradientTransform="rotate(-29.515 643.684 -509.43) scale(725.671 682.948)" gradientUnits="userSpaceOnUse"><stop offset=".03" stop-color="#F3F0FC"/><stop offset="1" stop-color="#8311EB"/></radialGradient></defs></svg>