<svg xmlns="http://www.w3.org/2000/svg" version="1.2" viewBox="0 0 1000 1000"><defs><linearGradient id="a" x2="1" gradientTransform="matrix(198.436 114.556 -280.777 486.368 833.374 393.771)" gradientUnits="userSpaceOnUse"><stop offset="0" stop-color="#fea52e"/><stop offset=".08" stop-color="#fb9341"/><stop offset=".21" stop-color="#f77b5c"/><stop offset=".35" stop-color="#f46871"/><stop offset=".51" stop-color="#f25b7f"/><stop offset=".7" stop-color="#f15388"/><stop offset="1" stop-color="#f1518b"/></linearGradient><linearGradient id="b" x2="1" gradientTransform="matrix(216.492 177.754 -213.286 259.768 884.518 442.917)" gradientUnits="userSpaceOnUse"><stop offset="0" stop-color="#fbc34a"/><stop offset=".12" stop-color="#fabd4a"/><stop offset=".27" stop-color="#f9af4a"/><stop offset=".44" stop-color="#f7974b"/><stop offset=".61" stop-color="#f4754d"/><stop offset=".78" stop-color="#f1494f"/><stop offset=".97" stop-color="#ec1551"/><stop offset="1" stop-color="#ec0b52"/></linearGradient><linearGradient id="c" x2="1" gradientTransform="matrix(-237.099 657.656 -662.255 -238.757 834.587 378.364)" gradientUnits="userSpaceOnUse"><stop offset=".07" stop-color="#ed0b51"/><stop offset=".21" stop-color="#e60a51"/><stop offset=".41" stop-color="#d30854"/><stop offset=".64" stop-color="#b40558"/><stop offset=".9" stop-color="#8a015e"/><stop offset="1" stop-color="#780061"/></linearGradient><linearGradient id="d" x2="1" gradientTransform="matrix(-150.503 378.533 -596.642 -237.222 637.503 101.611)" gradientUnits="userSpaceOnUse"><stop offset=".24" stop-color="#fea52e"/><stop offset=".59" stop-color="#ee4d42"/><stop offset=".82" stop-color="#e61a4e"/></linearGradient><linearGradient id="e" x2="1" gradientTransform="matrix(126.174 200.879 -284.914 178.957 487.27 173.818)" gradientUnits="userSpaceOnUse"><stop offset="0" stop-color="#ec0b52"/><stop offset=".02" stop-color="#ec1351"/><stop offset=".15" stop-color="#f0414f"/><stop offset=".27" stop-color="#f3694d"/><stop offset=".4" stop-color="#f68a4c"/><stop offset=".54" stop-color="#f8a34b"/><stop offset=".68" stop-color="#f9b44a"/><stop offset=".83" stop-color="#fabf4a"/><stop offset="1" stop-color="#fbc34a"/></linearGradient><linearGradient id="f" x2="1" gradientTransform="matrix(-408.289 989.482 -763.849 -315.186 608.187 -64.52)" gradientUnits="userSpaceOnUse"><stop offset="0" stop-color="#ed0b51"/><stop offset=".29" stop-color="#c20656"/><stop offset=".6" stop-color="#9a035c"/><stop offset=".85" stop-color="#81005f"/><stop offset="1" stop-color="#780061"/></linearGradient></defs><path fill="url(#a)" d="M877.3 319.6c5.2-17.3 22-27.6 40.1-26.4 13.8.8 26.3 1.7 32.2 3.4 3.9 24.3-11.6 146.6-35.7 189.9-4.8-22.1-15.7-41.9-30.9-57.5 1.1 9.1 1.6 18.4 1.6 27.8 0 33.2-6.5 65.1-18.4 94.1q-2.9 7-6.2 13.9l-20.9-4.9c-4-1-7.9-2.8-11.3-5.3-3.3-2.5-6.1-5.7-8.2-9.4s-3.3-7.7-3.8-11.9c-.4-4.2.1-8.4 1.4-12.4l60.2-201.3zm72.8-22.8.3.8-.4-.8z"/><path fill="url(#b)" d="M1000 500c0 65-12.4 127.1-35 184.1-29.3-30.5-64.9-55-104.7-71.2-7.9-3.2-15.9-6.2-24-8.7 12-16.4 22.1-34.3 29.9-53.3 11.9-29 18.4-60.9 18.4-94.1 0-9.4-.5-18.7-1.6-27.8 15.2 15.6 26.1 35.4 30.9 57.5 24.5-44 40.1-169.9 35.5-191 35 68.2 50.6 122.5 50.6 204.5"/><path fill="url(#c)" d="M965 684.1c-62.9 158.7-204.7 277.6-377.2 308.1 10.3-30.9 15.4-63.3 15.4-95.9 0-81-31.4-154.6-82.8-209.4-8.8-9.5-18.2-18.4-28.2-26.6 10.9 7.7 22.3 14.4 34.3 20.3 33 16.1 69.9 25.1 109 25.1 70.5 0 134.2-29.3 179.5-76.5 7.7-7.9 14.7-16.3 21.3-25.2 48.9 15.5 93.1 43 128.7 80z"/><path fill="url(#d)" d="M484.7 258.7c1.9 32.2 13.1 85.7 99.7 65.6 53.8-12.5 79.8 10.1 79.8 10.2 0 0-15.1 87.6-78.4 95.8C447 448 430.7 323.9 429.9 316.6c15.1-22.1 33.6-41.6 54.8-57.9"/><path fill="url(#e)" d="M635.6 207.8c27.5 0 53.8 4.4 78.5 12.6-8 38.6-23.8 82.7-49.9 114.3v-.2c0-.1-26.1-22.7-79.8-10.2-86.6 20.1-97.8-33.4-99.7-65.6 41.9-31.9 94.2-50.9 150.9-50.9"/><path fill="url(#f)" d="M752.2 193.3q0 9.1-.9 18c-1 11.3-12.8 18.4-23.3 14.2-28.5-11.4-59.7-17.7-92.4-17.7-87.3 0-164.2 45-208.7 113.2-26.3 40.4-40.3 87.6-40.3 135.8 0 18.2 1.9 35.9 5.7 52.9 11.8 54.8 41.8 103 83.2 137.8 5.4 4.5 11 8.9 16.8 13 10 8.2 19.4 17.1 28.3 26.6 51.3 54.7 82.7 128.4 82.7 209.3 0 33.5-5.3 65.7-15.3 95.9-28.5 5.1-57.9 7.7-87.9 7.7-15.2 0-30.2-.7-44.9-2-179.4-16-331.5-126.7-406.1-281.8C20.8 657.4 3.7 592.1.5 523.2-12.8 233.3 225.5-8.6 515.6.2q31.6 1 62 5.8c16.8 2.6 33.4 6.1 49.8 10.4 11.5 4 22.5 9.2 32.9 15.5 55 32.7 91.8 92.8 91.8 161.4z"/></svg>