<svg xmlns="http://www.w3.org/2000/svg" fill="none" viewBox="0 0 1000 1000"><mask id="a" width="897" height="1000" x="52" y="0" maskUnits="userSpaceOnUse" style="mask-type:alpha"><path fill="#fff" fill-rule="evenodd" d="M547.27 0C712.623 0 859.046 81.01 949 205.485L743.109 411.301a216.9 216.9 0 0 0-62.427-78.41 215.3 215.3 0 0 0-133.412-46.054 215.34 215.34 0 0 0-139.51 51.013 217.4 217.4 0 0 0-32.164 33.725 215.1 215.1 0 0 0-44.516 131.372c0 17.717 2.134 34.934 6.155 51.414l.649 2.593c17.995 69.914 70.109 126.142 137.543 149.886q1.561.547 3.13 1.07a216 216 0 0 0 16.418 4.778l1.152.278-.766-.185q1.977.492 3.965.936l-.573-.13.711.161-.138-.031 1.105.243-.404-.082 1.686.366-1.282-.284q1.746.39 3.506.748l-.888-.178 1.242.252-.354-.074.83.168-.28-.055.751.149-.471-.094q2.107.42 4.233.805a216.5 216.5 0 0 0 35.475 3.36l2.795.016c63.988 0 121.483-27.788 161.064-71.953l2.501-2.845a214 214 0 0 0 5.73-6.927 205 205 0 0 0 3.2-4.114l.322-.428-.138.189.748-1.003-.61.814a304 304 0 0 0 2.504-3.379 216 216 0 0 0 21.124-36.122L942.42 793.584c-59.337 78.373-141.469 138.549-236.534 170.656a460 460 0 0 1-6.116 2.015l-.979.318-.893.279.472-.149a427 427 0 0 1-5.046 1.583l3.187-.986a580 580 0 0 1-9.839 2.987l-2.189.636-.955.267.157-.047-1.797.507 1.066-.295q-2.879.826-5.771 1.6l-.365.101q-.916.237-1.832.484l-1.108.295a496.3 496.3 0 0 1-126.608 16.342l-4.638-.021-.41-.007c-95.987-.958-185.431-29.214-260.948-77.371-55.316 65.559-99.239 83.58-193.898 87.222 76.299-64.963 78.033-137.603 42.397-238.476a495 495 0 0 1-30.645-55.391C68.905 642.114 52 570.573 52 495.089 52 221.658 273.739 0 547.27 0" clip-rule="evenodd"/></mask><g mask="url(#a)"><path fill="#989898" d="M223 392.55c140.583-140.534 343.659-166.279 458.019-59.639a215.3 215.3 0 0 0-133.435-46.074c-119.396 0-216.19 96.758-216.19 216.11 0 119.355 96.794 216.11 216.19 216.11 87.132 0 162.22-51.533 196.445-125.769l198.705 200.296c-90.422 119.425-233.767 196.592-395.15 196.592-97.899 0-189.158-28.396-265.992-77.398-55.324 65.563-99.247 83.583-193.902 87.222 76.303-64.963 78.033-137.603 42.393-238.483a495 495 0 0 1-30.64-55.388C88.24 603.068 131.064 484.451 223 392.55"/><g filter="url(#b)"><path fill="#8DD0FF" d="M547.584 0c165.353 0 311.776 81.01 401.73 205.485L743.423 411.301a216.9 216.9 0 0 0-62.518-78.484l.091.074c-114.364-106.616-317.417-80.867-457.992 59.655-91.935 91.901-134.763 210.518-123.565 313.583-30.224-64.023-47.125-135.556-47.125-211.041C52.314 221.658 274.053 0 547.584 0"/></g><path fill="#8DE1FF" fill-rule="evenodd" d="M108.555 589.024c-10.087 39.737-13.206 79.459-9.116 117.105a492 492 0 0 1-3.328-7.208c-4.668-100.347 38.547-220.847 125.499-307.762 140.935-140.881 345.352-167.014 460.809-59.651a218.9 218.9 0 0 1 62.481 78.315l-1.476 1.478a216.9 216.9 0 0 0-62.437-78.42l.032.031a216 216 0 0 0-18.422-12.99c-115.683-88.332-304.937-59.2-438.205 74.015-89.121 89.088-131.802 213.721-123.721 314.772q-.618-1.288-1.229-2.58c-4.091-37.645-.974-77.367 9.113-117.105m189.683-257.376a448 448 0 0 0-7.17 4.728l1.831-1.226a419 419 0 0 1 5.339-3.502M108.712 588.401l.001-.003-.158.626q.076-.311.157-.623" clip-rule="evenodd"/></g><defs><filter id="b" width="929" height="748.129" x="36.314" y="0" color-interpolation-filters="sRGB" filterUnits="userSpaceOnUse"><feFlood flood-opacity="0" result="BackgroundImageFix"/><feColorMatrix in="SourceAlpha" result="hardAlpha" values="0 0 0 0 0 0 0 0 0 0 0 0 0 0 0 0 0 0 127 0"/><feOffset dy="26"/><feGaussianBlur stdDeviation="8"/><feComposite in2="hardAlpha" operator="out"/><feColorMatrix values="0 0 0 0 0 0 0 0 0 0 0 0 0 0 0 0 0 0 0.2 0"/><feBlend in2="BackgroundImageFix" result="effect1_dropShadow_47_156"/><feBlend in="SourceGraphic" in2="effect1_dropShadow_47_156" result="shape"/><feColorMatrix in="SourceAlpha" result="hardAlpha" values="0 0 0 0 0 0 0 0 0 0 0 0 0 0 0 0 0 0 127 0"/><feOffset dx="6" dy="6"/><feGaussianBlur stdDeviation="8"/><feComposite in2="hardAlpha" k2="-1" k3="1" operator="arithmetic"/><feColorMatrix values="0 0 0 0 1 0 0 0 0 1 0 0 0 0 1 0 0 0 0.4 0"/><feBlend in2="shape" result="effect2_innerShadow_47_156"/></filter></defs></svg>