<svg xmlns="http://www.w3.org/2000/svg" fill="none" viewBox="0 0 1000 1000"><path fill="#5C8F37" stroke="#162809" stroke-width="17" d="M809.307 611.692c0 8.185-1.036 15.956-4.04 22.794-3.109 7.045-8.6 12.847-15.438 16.474-13.262 7.356-33.673 9.221-62.373 8.185-23.933 5.906-36.884 10.361-44.137 14.92a17.6 17.6 0 0 0-6.424 6.216c-1.45 2.59-2.383 5.491-2.797 8.496-2.59 16.474.311 47.66-24.866 104.334-7.874 17.717-22.483 33.362-41.236 47.142-18.754 13.884-42.273 26.109-68.693 36.574-52.737 20.825-118.01 34.812-183.077 39.786-64.962 5.077-130.443 1.139-183.387-14.298-52.633-15.438-95.01-42.894-109.929-86.514-38.542-113.14-23.001-198.721 4.248-256.949 11.19-24.141 26.006-46.521 43.827-66.31 6.838-7.564 13.158-13.469 18.131-17.717 4.662-3.937 9.014-6.942 11.708-8.185l1.243-.518 1.347-.208c44.759-4.766 178.932-22.172 311.034-32.947 66.102-5.388 131.893-9.221 185.977-9.014 27.042.104 51.287 1.14 71.387 3.626 19.685 2.383 36.366 6.217 47.349 12.33 18.546 10.361 29.528 19.789 34.709 31.393 4.973 11.397 3.626 23.416 2.383 35.538 0 1.658-.311 3.419-.518 4.766-.311 1.969-.726 3.937-1.036 6.32a124 124 0 0 0-1.451 18.857c.104 15.852 3.108 39.164 15.438 71.801l.621 1.45z"/><path fill="#A26852" stroke="#39180C" stroke-width="17" d="M724.759 656.762c12.848-.518 26.213-.311 36.989 1.347 5.387.829 10.671 2.176 15.127 4.248 4.351 2.176 8.91 5.491 11.086 10.879l1.036 2.383-.415 2.486c-1.45 9.014-5.076 16.06-10.464 21.137-5.388 5.076-11.708 7.667-17.717 9.221-6.01 1.554-12.433 2.383-17.821 3.108q-5.076.725-9.221 1.658c-3.316 16.474-18.132 25.177-31.186 29.218-13.677 4.144-29.218 4.662-38.854 2.901-27.767 9.014-54.601 12.743-81.125 14.919-27.767 2.28-53.462 2.798-81.644 5.699-44.862 10.464-109.825 9.014-136.763 6.942-33.984-.208-53.877-21.758-53.255-45.796.207-6.009 1.657-12.018 4.455-17.406 2.694-5.491 6.527-10.257 11.293-13.987 10.05-8.289 24.348-12.951 42.065-12.433 47.971 1.658 95.942.622 143.809-3.108 46.417-15.956 79.572-20.929 104.127-21.758a241 241 0 0 1 30.772.932c8.599.829 14.194 1.554 19.064 1.554h.518c2.797.104 10.154-.518 21.343-1.554 10.672-.932 23.727-2.072 36.781-2.59Z"/><path fill="#fff" stroke="#242424" stroke-width="17" d="M309.393 494.614c-24.762 12.744-51.7 21.033-79.364 24.348 101.019 109.1 229.079 85.685 250.733 84.752 68.486-46.002 34.398-92.522 29.839-101.536-101.847-29.736-179.553-10.258-201.208-7.564Z"/><path fill="#000" d="M437.556 536.887c50.354-3.419 57.399 39.993 53.773 66.31-36.16 6.941-119.668 2.279-127.75-10.879-4.455-7.149-2.279-16.578 0-25.177 3.627-8.703 23.519-26.939 73.977-30.254"/><path fill="#F1F1F1" d="M406.89 554.604c-8.392-3.937-9.117 2.901-8.599 7.149-1.969 2.487 4.973 6.838 8.599 8.6 3.419 0 10.568-.622 12.64-2.383 3.316-2.694-1.657-8.082-12.64-13.366m-.725 30.772c-4.455 2.486-2.383 8.91-.829 11.811 6.838-.311 8.6-1.347 8.6-4.766-.726-3.419-3.419-9.532-7.771-7.045m50.354-6.32c-7.564.621-4.248 8.599-1.554 12.536 1.865 4.456 7.563 1.347 10.153-.725.311-4.248-1.036-12.433-8.599-11.811"/><path fill="#fff" stroke="#242424" stroke-width="17" d="M818.839 561.339c4.558-36.988-12.123-76.774-139.147-53.669-23.312 4.248-141.322 65.791-157.796 37.506-8.496 19.375-1.761 40.304-15.23 54.084 40.511 33.051 65.998 19.996 114.694 17.924 142.67 2.59 184.942-9.946 197.479-55.845Z"/><path fill="#000" d="M726.833 544.657c-40.407-2.693-67.035 46.003-75.738 74.081 62.58 4.04 104.956-3.937 117.803-10.154 3.419-21.343-1.657-61.233-42.065-63.927"/><path fill="#F1F1F1" d="M746.206 596.773c-2.487 14.505-11.501 11.811-15.749 8.599-5.595-5.594-1.243-9.117 1.554-10.153 3.212-3.005 1.554-3.73 4.766-3.937 2.694-.311 10.568-1.14 9.429 5.491m-40.097-33.051c-6.942 4.455-1.347 10.257 2.383 12.536 1.243 1.969 3.626.829 4.663 0 .518-6.009-.104-16.991-7.046-12.536"/><path fill="#B8BD7A" stroke="#3D4021" stroke-width="17" d="M46.123 825.645c2.59-.208 5.284.31 7.564 1.657l2.176 1.451 5.49 4.455c28.39 21.654 68.797 39.371 116.043 52.115 50.353 13.677 107.753 21.654 165.359 23.105 57.607 1.347 115.109-3.73 165.567-15.956 50.665-12.226 93.455-31.497 122.465-57.917l3.73-3.419 4.766 1.45c18.028 5.388 39.475 14.195 55.638 36.678 15.956 22.276 25.902 56.674 24.245 110.965l-.208 9.014-9.014-.415a1607 1607 0 0 0-72.94 0l-6.527.208-2.073-6.217c-5.387-15.541-14.09-37.921-22.69-54.602-2.797-5.802-6.216-11.19-10.257-16.266a25 25 0 0 0-.104 5.077c.415 5.284 1.969 11.811 4.455 19.064 4.87 14.401 12.641 29.735 18.339 39.371l7.771 13.365H610.48l-590.57-.207H11v-121.74l1.14-2.072c3.73-6.424 9.532-17.199 15.541-25.385 2.901-3.937 6.424-8.081 10.36-10.775a17.4 17.4 0 0 1 8.082-3.004Z"/><path fill="#2D2D2D" stroke="#000" stroke-linejoin="round" stroke-width="14" d="M968.657 672.615c2.797-.829 5.802-.933 8.703-.311 2.901.621 5.491 2.072 7.667 4.144 2.072 2.072 3.626 4.559 4.351 7.46a15.2 15.2 0 0 1 0 8.599L909.185 979.4c-1.036 3.419-3.005 6.424-5.906 8.6-2.797 2.176-6.216 3.315-9.739 3.315h-67.76c-2.487 0-5.077-.621-7.356-1.761s-4.248-2.798-5.699-4.87c-1.554-1.968-2.59-4.351-3.004-6.941-.415-2.487-.207-5.077.518-7.46l81.54-265.55c.829-2.486 2.176-4.766 3.937-6.631 1.865-1.865 4.144-3.315 6.631-4.144z"/><path fill="#585858" d="m930.114 901.694-29.529 82.265h-87.031l30.046-96.874z"/><path fill="#D9D9D9" d="M858.001 919.618c5.699 0 10.361-4.663 10.361-10.361s-4.662-10.361-10.361-10.361c-5.698 0-10.361 4.662-10.361 10.361 0 5.698 4.663 10.361 10.361 10.361m37.507 6.631c5.698 0 10.361-4.663 10.361-10.361a10.326 10.326 0 0 0-10.361-10.361 10.325 10.325 0 0 0-10.361 10.361c0 5.698 4.662 10.361 10.361 10.361m-45.485 22.068c5.699 0 10.361-4.662 10.361-10.36a10.324 10.324 0 0 0-10.361-10.361c-5.802 0-10.36 4.558-10.36 10.361 0 5.698 4.558 10.36 10.36 10.36m41.237 8.185c5.698 0 10.361-4.662 10.361-10.36 0-5.699-4.663-10.361-10.361-10.361s-10.361 4.662-10.361 10.361c0 5.698 4.662 10.36 10.361 10.36m-48.8 18.028c5.698 0 10.361-4.662 10.361-10.36 0-5.699-4.663-10.361-10.361-10.361s-10.361 4.662-10.361 10.361c0 5.698 4.663 10.36 10.361 10.36m42.687 7.046c5.698 0 10.361-4.663 10.361-10.361s-4.663-10.361-10.361-10.361-10.361 4.662-10.361 10.361c0 5.698 4.662 10.361 10.361 10.361"/><path fill="#000" d="M906.904 732.086c.932 3.73 3.004 7.149 5.802 9.739 5.905 5.491 9.532-5.699 13.676-5.699 6.942 0 16.37 5.077 19.582 5.077 2.487 0 4.248 0 6.32-1.554m-16.681 58.954c-.518-5.492-6.942-8.911-11.604-10.983-6.734-3.005-27.456 13.573-35.227 13.573m-16.163 51.908c5.077-8.289 11.915 3.419 20.204.311 2.486-1.037 12.433 7.252 16.577 7.77 1.036.104 12.226-4.455 8.082-1.036"/><path stroke="#9E9E9E" stroke-linecap="round" stroke-width="14" d="M906.904 732.086c.932 3.73 3.004 7.149 5.802 9.739 5.905 5.491 9.532-5.699 13.676-5.699 6.942 0 16.37 5.077 19.582 5.077 2.487 0 4.248 0 6.32-1.554m-16.681 58.954c-.518-5.492-6.942-8.911-11.604-10.983-6.734-3.005-27.456 13.573-35.227 13.573m-16.163 51.908c5.077-8.289 11.915 3.419 20.204.311 2.486-1.037 12.433 7.252 16.577 7.77 1.036.104 12.226-4.455 8.082-1.036"/><path fill="#5C8F37" stroke="#162809" stroke-width="14" d="M822.255 914.955c3.937.415 8.081 1.347 11.5 2.383 1.658.518 3.42 1.14 4.87 1.865 1.14.622 3.419 1.761 4.87 4.041q.932 1.347 1.243 3.108a9.5 9.5 0 0 1 0 3.419c-.622 2.072-1.865 3.834-3.626 4.973q-2.901 1.866-6.528 2.176c-2.693.415-6.423 3.212-9.842 10.154-3.212 6.527-5.077 14.816-5.181 22.069 0 5.387-2.072 10.464-5.595 14.401-2.072 2.176-4.662 3.73-7.563 4.455-1.762.311-3.523.208-5.284-.207-1.762-.414-3.316-1.243-4.663-2.383-10.671-8.289-12.122-22.587-9.739-34.605 2.383-12.33 9.221-25.177 19.064-32.948 1.243-1.036 2.798-1.865 4.352-2.279l3.004-.622c3.005-.414 6.217-.311 9.118 0ZM938.4 886.566c5.181 0 10.983 1.969 17.199 5.595 8.496 4.455 12.537 13.78 14.195 22.794 1.761 9.221 1.243 19.997-.933 30.15-2.175 10.05-6.216 19.997-12.122 27.56-6.113 7.564-14.816 13.262-25.798 12.226h-.311c-5.595-1.036-10.776-3.523-15.127-7.253-4.248-3.522-7.978-7.563-10.879-12.225-2.694-4.145-5.077-9.325-5.077-14.298-.104-3.109 1.036-6.113 3.005-8.496a11.93 11.93 0 0 1 7.045-3.834v-.207a441 441 0 0 0-.518-5.906 58.2 58.2 0 0 1 0-14.712c.933-5.388 3.834-11.397 10.983-13.987a24 24 0 0 1 3.211-.829c-.725-3.212-.207-6.528 1.451-9.429 2.797-5.077 8.289-7.252 13.676-7.149Z"/><path fill="#39180C" d="M561.886 710.017c82.473-13.366 144.845-8.6 165.774-4.559-11.5 4.87-35.019 3.523-45.38 2.279-20.1 4.766-62.373 14.92-70.558 17.303-86.824 10.568-113.969 18.961-135.416 18.961-51.08-10.879-99.568-11.397-117.493-10.258 8.289-2.383 29.011-7.46 46.831-8.703 90.244 6.424 124.538-10.568 156.242-15.023"/><path fill="#B8BD7A" stroke="#3D4021" stroke-width="17" d="M443.565 9c-96.874 0-231.877 298.393-287.204 447.693 375.375 5.181 536.486-17.199 579.07-28.492C678.446 288.433 540.335 9 443.565 9Z"/></svg>