<svg xmlns="http://www.w3.org/2000/svg" fill="none" viewBox="0 0 1000 1000"><path fill="url(#a)" d="m499.657 987.918.587.055-.488-.045zm-218.386-75.14c35.333 22.532 73.715 40.707 114.391 53.769a493 493 0 0 1-114.394-53.766zM942.42 793.584 743.716 593.292c-25.402 55.097-73.313 97.686-131.95 115.984 58.637-18.299 106.548-60.89 131.95-115.988zM547.27 0C712.623 0 859.046 81.01 949 205.485L743.11 411.301c-14.45-30.805-35.96-57.64-62.446-78.428-114.367-106.595-317.407-80.84-457.973 59.677-91.935 91.901-134.763 210.518-123.562 313.579a495 495 0 0 0 30.645 55.392l.014.042C80.547 684.633 52 593.194 52 495.089 52.001 221.658 273.74 0 547.27 0M333.172 472.778a216 216 0 0 0-.521 3.996l-.158 1.357q.305-2.687.679-5.353m130.307-169.109q-.361.151-.721.305zm86.059-16.823a215.4 215.4 0 0 1 50.069 6.368c-16.759-4.165-34.289-6.377-52.336-6.377z"/><path fill="url(#b)" d="M222.691 392.55c140.582-140.534 343.655-166.279 458.014-59.638a215.3 215.3 0 0 0-133.435-46.075c-119.399 0-216.189 96.758-216.189 216.11 0 119.355 96.79 216.11 216.189 216.11 87.132 0 162.221-51.529 196.446-125.765L942.42 793.584c-90.422 119.425-233.767 196.592-395.15 196.592-97.898 0-189.161-28.396-265.999-77.398-55.316 65.559-99.235 83.583-193.894 87.222 76.303-64.96 78.033-137.603 42.397-238.479a495 495 0 0 1-30.645-55.392C87.928 603.068 130.756 484.451 222.691 392.55"/><defs><linearGradient id="a" x1="91.308" x2="91.304" y1="0" y2="666.011" gradientUnits="userSpaceOnUse"><stop stop-color="#7E2BC6"/><stop offset=".599" stop-color="#B418AB"/><stop offset="1" stop-color="#FA0483"/></linearGradient><linearGradient id="b" x1="515.824" x2="515.828" y1="269.225" y2="997.56" gradientUnits="userSpaceOnUse"><stop offset=".19" stop-color="#7E27C7"/><stop offset=".39" stop-color="#A91AB0"/><stop offset="1" stop-color="#FB0182"/></linearGradient></defs></svg>