<svg xmlns="http://www.w3.org/2000/svg" fill="none" viewBox="0 0 1000 1000"><path fill="#000" d="M248.635 0S67.317 176.396 69.28 174.572v648.33H69V1000l177.392-177.66h360.955L931 498.457V0zm613.371 464.215L722.055 604.126H405.274L288.321 718.215V607.213h.14V67.36c0-2.527 573.405 1.261 573.405 1.261v395.594z"/><path fill="#fff" d="M862.006 464.215 721.635 605.108l-316.781-.982L288.18 719.197V605.95l.701-540.556 573.825-.14zm-92.131-298.904s-345.942.841-345.108 0v331.882h249.89l95.218-95.285z"/><path fill="#000" d="m769.875 401.908-95.218 95.285H424.766V165.311c-.734.841 345.109 0 345.109 0zm-306.966-52.203.14 103.283h148.365l33.094-33.116.14-70.167z"/></svg>