<svg xmlns="http://www.w3.org/2000/svg" fill="none" viewBox="0 0 1000 1000"><g clip-path="url(#a)"><path fill="#9146FF" d="M0 0h1000v1000H0z"/><path fill="#fff" d="M500.002 749.999q-104.863 0-177.43-32.288-72.571-32.293-72.571-78.823V361.112q0-45.835 73.262-78.475 73.267-32.636 176.739-32.636t176.735 32.636 73.262 78.475v277.776q0 46.527-72.567 78.823-72.567 32.288-177.43 32.288m0-332.637q61.803 0 124.305-17.71 62.502-17.708 70.14-37.845-7.645-20.14-69.792-38.196-62.156-18.055-124.653-18.055-63.194 0-123.961 17.707-60.764 17.712-70.485 38.544 9.721 20.833 70.489 38.192t123.957 17.363m0 138.195q29.166 0 56.251-2.774 27.08-2.782 51.734-7.99t46.526-12.846 39.934-17.36v-83.342q-18.058 9.724-39.93 17.367-21.876 7.642-46.526 12.846-24.658 5.205-51.742 7.99t-56.247 2.782q-29.168 0-56.946-2.782-27.78-2.785-52.43-7.99-24.654-5.208-46.182-12.85t-38.888-17.36v83.335q17.364 9.721 38.892 17.36t46.178 12.85 52.43 7.986q27.778 2.777 56.946 2.778m0 138.883q31.944 0 64.932-4.861t60.76-12.846 46.526-18.055 22.224-20.485v-68.058q-18.055 9.721-39.927 17.363-21.876 7.642-46.526 12.847-24.658 5.208-51.742 7.99t-56.247 2.781q-29.163 0-56.946-2.781-27.784-2.782-52.43-7.99t-46.182-12.851-38.888-17.359v68.75q3.477 10.416 21.876 20.141t46.179 17.707q27.779 7.99 61.115 12.85 33.331 4.857 65.272 4.857"/></g><defs><clipPath id="a"><path fill="#fff" d="M0 0h1000v1000H0z"/></clipPath></defs></svg>