<svg xmlns="http://www.w3.org/2000/svg" fill="none" viewBox="0 0 1000 1000"><g clip-path="url(#a)"><path fill="#7F7F7F" d="M0 0h1000v1000H0z"/><path fill="#000" d="M886 64H114c-37.555 0-68 30.445-68 68v736c0 37.555 30.445 68 68 68h772c37.555 0 68-30.445 68-68V132c0-37.555-30.445-68-68-68"/><path fill="#C3C3C3" d="M872 90H128c-30.928 0-56 25.072-56 56v706c0 30.928 25.072 56 56 56h744c30.928 0 56-25.072 56-56V146c0-30.928-25.072-56-56-56"/><path fill="#000" d="M277 326c16.016 0 29-12.984 29-29s-12.984-29-29-29-29 12.984-29 29 12.984 29 29 29m446-4c16.016 0 29-12.984 29-29s-12.984-29-29-29-29 12.984-29 29 12.984 29 29 29m129 348H154c-8.837 0-16 7.163-16 16s7.163 16 16 16h698c8.837 0 16-7.163 16-16s-7.163-16-16-16"/></g><defs><clipPath id="a"><path fill="#fff" d="M0 0h1000v1000H0z"/></clipPath></defs></svg>