<svg viewBox="0 0 1000 1000" xmlns="http://www.w3.org/2000/svg"><path fill="red" d="M979.428 273.786a125 125 0 0 0-88.143-88.143C813 165 500 165 500 165s-313 0-391.286 20.643c-42.857 11.5-76.572 45.285-88.143 88.143C0 352 0 514.286 0 514.286s0 163.071 20.571 240.5c11.571 42.857 45.357 76.642 88.143 88.142C187 863.571 500 863.571 500 863.571s313 0 391.285-20.643a125 125 0 0 0 88.143-88.142C1000 676.57 1000 514.286 1000 514.286s0-162.286-20.572-240.5"/><path fill="#fff" d="m399.5 665 260.285-149.857L399.5 364.428z"/></svg>