<svg xmlns="http://www.w3.org/2000/svg" viewBox="0 0 600 600"><path fill="#fff" d="m375 142 2.258 1.836c23.136 19.441 35.85 48.53 38.742 78.164 2.084 31.7-8.085 61.367-28.709 85.308C372.21 324.283 352.34 337.731 330 343c0 5.384 4.23 9.158 7.828 12.902 9.698 9.009 20.78 12.39 33.8 12.371l4.89.063q3.766.034 7.534.045c22.383.088 41.96 5.202 58.493 21.132 17.054 17.432 19.996 38.146 19.807 61.444l-.102 7.543q-.03 3.866-.055 7.73L462 485h-47l-.043-11.023-.11-10.644q-.034-3.681-.043-7.362l-.097-10.62.012-3.29c-.137-7.24-1.438-13.091-5.719-19.061-5.922-4.888-11.244-6.137-18.824-6.21l-4.81-.087-7.516-.104c-27.173-.316-52.662-6.716-72.397-26.314-2.136-1.99-3.78-3.192-6.453-4.285l-1.695 1.871c-15.878 16.77-38.16 27.173-61.337 28.22l-6.273.05q-2.353.027-4.707.058l-7.292.051c-13.655-.144-13.655-.144-25.696 5.75-4.075 5-6.095 9.631-6.205 16.114l-.06 3.154-.051 3.4-.063 3.485a6064 6064 0 0 0-.184 11.034l-.13 7.475L185 485h-47l-.22-22.62q-.03-3.837-.082-7.674c-.34-25.557 2.335-47.072 20.815-66.251 16.754-16.392 37.351-20.033 59.8-20.017 16.917-.025 32.168-.994 45.125-13.375 3.209-3.42 5.469-6.877 7.562-11.063l-3.516-1.297c-31.813-11.947-58.172-31.393-72.77-62.793-12.922-28.968-14.465-60.672-3.503-90.492C196.234 176.605 203.224 165.537 212 155l1.684-2.11c17.11-20.959 45.319-34.467 71.827-37.663 32.884-3 63.947 5.528 89.489 26.773m-126 42-2.047 1.988c-11.74 12.13-16.25 30.059-16.268 46.488.355 18.616 8.516 35.422 21.4 48.669 13.4 12.65 31.635 19.58 50.095 19.105 15.33-1.359 28.626-5.6 40.82-15.25l2.527-1.957C358.43 272.328 367.306 255.731 369 239c1.235-20.8-3.764-39.268-17.695-55.148C341.24 172.935 329.492 166.528 315 163l-2.277-.582C288.035 158.628 266.11 166.233 249 184"/></svg>