<svg xmlns="http://www.w3.org/2000/svg" viewBox="0 0 15360 17713"><path d="M6438.5-.5h133q-93.09 196.71-202.5 384a9112 9112 0 0 1-300 472 6663 6663 0 0 1-280 388 7614 7614 0 0 1-133 161l-156 176a55696 55696 0 0 0-464 509 8013 8013 0 0 0-306 368 4284 4284 0 0 0-259 376c-89.52 153.38-168.19 312.38-236 477a8745 8745 0 0 0-137 354 67864 67864 0 0 1-205 567 9690 9690 0 0 1-161 398 19551 19551 0 0 1-255 558l-126 262a219023 219023 0 0 0-323 661 4238 4238 0 0 0-208 538 7583 7583 0 0 0-146 550l-66 292a501 501 0 0 0-7 39c-.62 21.67-.45 43.34.5 65a4602 4602 0 0 0 137 4.5l486-.5q93 .05 186 1.5l453 16c368.24 12.75 736.58 16.42 1105 11a14382 14382 0 0 0 1010-51l314-8h923a6389 6389 0 0 0 457-20c84.03-.48 168.03.85 252 4q260.98 11.04 522 21c68.65 2.23 137.32 2.89 206 2a2529 2529 0 0 1 276-39l125-10 426-22c67.84-3.74 135.5-9.4 203-17 79.41-.43 158.74-3.1 238-8l336-25c92.6-7.07 185.2-12.07 278-15 252.9-2.4 505.6-12.06 758-29 266.1-17.47 531.8-40.47 797-69l301-34 425-39c63.3-6.12 126.3-14.46 189-25l334-25q77.1-7.26 153-22.5c-44-150.8-95.8-298.8-155.5-444-91.2-218.89-193.8-432.22-308-640-88-159.3-179-316.63-273-472q-119.55-196.76-240-393c-73.4-124.77-142.7-252.11-208-382l-226-463a7856 7856 0 0 0-197-379c-44.9-80.17-92.6-158.5-143-235-47.4-68.09-96.7-134.76-148-200l-237-301a3661 3661 0 0 1-140-208l-170-277-306-466-188-268q-228.45-330.27-417-687l-101-202a2490 2490 0 0 0-156-256 11976 11976 0 0 0-215-290 2362 2362 0 0 0-121-161A2012 2012 0 0 0 9382.5 311q-70.95-61.44-141-124a1035 1035 0 0 1-75.5-77.5c-9.98-12.28-17.64-25.94-23-41a1719 1719 0 0 0-16.5-69h121c2.59 22.16 10.42 42.16 23.5 60l9.5 9.5a9893 9893 0 0 0 148 118A1248.3 1248.3 0 0 1 9578 328.5a7874 7874 0 0 1 481 650 5773 5773 0 0 1 198 326l116 214c64 109.62 132.3 216.28 205 320l236 333c66.9 95.91 130.2 194.25 190 295 45.6 95.82 97.2 187.82 155 276a4173 4173 0 0 0 85 125l177 244 73 105c69.6 74.55 134.2 152.88 194 235 100.1 140.43 192.4 286.09 277 437 75 134.24 147.6 269.9 218 407l254 496q140.55 271.57 300 531l238 375c65.9 104.17 129.6 209.84 191 317 51.6 91.48 99.2 185.15 143 281 43.8 102.19 82.2 206.53 115 313l123 404c19.9 62.67 41.6 124.67 65 186 53.2 19.02 104.4 42.52 153.5 70.5a2461 2461 0 0 1 80 51l98 68c35.6 19.6 69.2 41.94 101 67q82.65 66.51 157.5 142.5c183.9 189.83 346.9 395.5 489 617 38.4 60.72 73.7 123.39 106 188a199 199 0 0 0 27.5 30.5 694 694 0 0 0 77 54l95 57a185.2 185.2 0 0 1 39.5 32.5c27 43.28 46 89.95 57 140 15.1 70.18 22.3 141.18 21.5 213-.5 71.2-5.5 142.04-15 212.5a752.5 752.5 0 0 1 99.5 207.5 1148.6 1148.6 0 0 1 48 383q-6.15 182.61-69 354c-16.9 43.4-37.2 85.1-61 125a110 110 0 0 0-3 16c-4.3 53.5-10.3 106.9-18 160-9.4 65.4-27.1 128.4-53 189q-27.15 61.35-75 108-29.55 44.55-66 84c-55.8 58.2-116.7 110-182.5 155.5-96.4 65.9-197.8 124.2-304 175a138.5 138.5 0 0 1 20.5 62.5 384.2 384.2 0 0 1-14 137c-28.5 104.1-81.4 193.2-158.5 267.5 46 4.9 91.3 13.2 136 25 33.1 9 64.1 22.7 93 41 13.8 9.1 25.6 20.2 35.5 33.5 25.7 36.7 48.4 75.4 68 116a319 319 0 0 1 25 84c5.3 39.3-.4 77-17 113a366.5 366.5 0 0 1-61 87l-46.5 46.5-174 154a1024.7 1024.7 0 0 1-236 100 1018.7 1018.7 0 0 1-194 31l-204 11q-39 2.1-78 6a899.5 899.5 0 0 1-45.5 126.5c-30.1 66.5-74.6 121.3-133.5 164.5q-114.15 80.7-252 108c-57.2 11.4-114.8 19-173 23l-209 12q-218.55 295.65-439.5 589.5l-129 176c-53.5 64.8-113.3 123-179.5 174.5q-109.35 83.25-228 153l-163 91q-163.8 85.05-327 171c-33.2 17.9-65.9 36.6-98 56q16.35 24.3 31.5 49.5a83 83 0 0 0 23.5 19.5q212.4 84.9 411 198c380.3 220.9 696.5 512.4 948.5 874.5 190.1 277.6 334.4 578.3 433 902a3970.2 3970.2 0 0 1 156 820c16.2 189.1 21 378.4 14.5 568h-71c.6-205.4-8.5-410.4-27.5-615a3712 3712 0 0 0-112-626c-59.8-215.1-142.5-420.7-248-617-106.8-197.4-227.8-385-363-563-73.6-94.9-155.1-183.1-244.5-264.5a3451 3451 0 0 0-369-286c-133.6-88.8-269.6-174.2-408-256l-171-101a6.2 6.2 0 0 0-5 0 652 652 0 0 0-142 98c-31.4 29.4-62.3 59.6-92.5 90.5a4321 4321 0 0 1-176.5 184.5c-34.6 33-71.3 63.3-110 91l-182 127-312 228c-117.1 85-236.74 166.4-359 244-177.8 111.4-365.47 203.4-563 276-224.9 82-454.57 147.6-689 197-317.83 66.8-638.49 114.8-962 144-408.49 37.1-817.83 53.8-1228 50-574.38-4.9-1146.71-41.6-1717-110-308.51-36.4-615.51-82.8-921-139-296.77-56.5-588.77-130.2-876-221l-415.5-134.5a7140 7140 0 0 1-418.5-151.5c-112.64-45.7-222.64-97.3-330-155a1921.5 1921.5 0 0 1-301-203c-179.95-150.1-312.95-334.3-399-552.5a409.9 409.9 0 0 0-121 65.5c-16.93 13.6-33.26 27.9-49 43a2403 2403 0 0 1-102 101l-24 20c-243.42 173.1-425.59 396.3-546.5 669.5q-83.07 189.75-137 390c-24.91 84.3-44.74 169.6-59.5 256v-432l43.5-142q47.94-157.35 134-297c75.46-120.3 157.79-235.6 247-346 70.11-80.8 146.61-154.6 229.5-221.5a3737 3737 0 0 1 266-193 1709 1709 0 0 1-295.5-408.5q-112.16-216.9-175-453-81-308.55-100-627-22.58-381.6 15-762a6854 6854 0 0 1 132-825q183.04-817.65 519-1584a6614 6614 0 0 1 337-665 3529 3529 0 0 1 257-382 4962 4962 0 0 1 364.5-365.5c130.26-117.63 269.59-222.96 418-316l122-71.5c-19.06-225.53-11.56-450.2 22.5-674q44.04-288.65 132-567c69.44-217.52 151.11-430.19 245-638a11388 11388 0 0 1 231-482 101366 101366 0 0 1 276-536l207-421a5173 5173 0 0 0 182-443l68-195 136-404a5072 5072 0 0 1 171-435q75.49-165.01 171-318a6048 6048 0 0 1 226-320 9834 9834 0 0 1 377-462 84710 84710 0 0 1 459-521 15965 15965 0 0 0 277-325 7960 7960 0 0 0 319-415c130.03-182.88 247.36-374.21 352-574a5192 5192 0 0 0 73.5-150"/><path fill="#adb87d" d="M6571.5-.5h2555a1719 1719 0 0 1 16.5 69c5.36 15.06 13.02 28.72 23 41a1035 1035 0 0 0 75.5 77.5q70.05 62.56 141 124A2012 2012 0 0 1 9542 471.5a2362 2362 0 0 1 121 161 11976 11976 0 0 1 215 290 2490 2490 0 0 1 156 256l101 202q188.55 356.73 417 687l188 268 306 466 170 277a3661 3661 0 0 0 140 208c77.3 101.6 156.3 201.94 237 301 51.3 65.24 100.6 131.91 148 200 50.4 76.5 98.1 154.83 143 235a7856 7856 0 0 1 197 379l226 463c65.3 129.89 134.6 257.23 208 382q120.45 196.24 240 393c94 155.37 185 312.7 273 472 114.2 207.78 216.8 421.11 308 640 59.7 145.2 111.5 293.2 155.5 444q-75.9 15.24-153 22.5c-111.2 9.96-222.5 18.29-334 25-62.7 10.54-125.7 18.88-189 25l-425 39-301 34c-265.2 28.53-530.9 51.53-797 69-252.4 16.94-505.1 26.6-758 29-92.8 2.93-185.4 7.93-278 15l-336 25c-79.26 4.9-158.59 7.57-238 8a3571 3571 0 0 1-203 17l-426 22-125 10a2529 2529 0 0 0-276 39c-68.68.89-137.35.23-206-2q-261.02-9.96-522-21a5833 5833 0 0 0-252-4 6389 6389 0 0 1-457 20h-923a9963 9963 0 0 0-314 8 14382 14382 0 0 1-1010 51c-368.42 5.42-736.76 1.75-1105-11l-453-16q-93-1.45-186-1.5l-486 .5-137-4.5c-.95-21.66-1.12-43.33-.5-65a501 501 0 0 1 7-39l66-292a7583 7583 0 0 1 146-550 4238 4238 0 0 1 208-538l323-661 126-262a19551 19551 0 0 0 255-558 9690 9690 0 0 0 161-398l205-567a8745 8745 0 0 1 137-354c67.81-164.62 146.48-323.62 236-477a4284 4284 0 0 1 259-376 8013 8013 0 0 1 306-368 55696 55696 0 0 1 464-509l156-176a7614 7614 0 0 0 133-161 6663 6663 0 0 0 280-388 9112 9112 0 0 0 300-472q109.41-187.29 202.5-384"/><path fill="#5d8c44" d="M14770.5 8472.5a761 761 0 0 1-78 2c-106.3-3.78-212.6-5.44-319-5l-688 5.5-491 1a7315 7315 0 0 0-666 49q-249.9 31.56-498 72l-492 88c-116.4 26.75-231.1 58.42-344 95l-273 89q-86.7 25.67-174 51a2224 2224 0 0 0-273 112l-120 61-289 154c-67.52 34.53-136.19 65.69-206 93.5a784 784 0 0 0-27-19.5 1137 1137 0 0 1-67-41 86 86 0 0 1-11.5-10.5 51771 51771 0 0 1-113-306 2419 2419 0 0 0-127-282 1283.7 1283.7 0 0 0-125-189 3620 3620 0 0 0-153-168 7316 7316 0 0 1-264-275c-64.41-72.06-123.08-148.39-176-229a1130 1130 0 0 1-78.5-142 27051 27051 0 0 1 643-47.5l370-15 1255-68 713-36 310-36 706-65c166.2-15.17 331.8-34.5 497-58a4006 4006 0 0 0 358.5-68.5 2033 2033 0 0 1 173.5 89.5c112.1 64.75 218.1 138.09 318 220 183.4 159.37 349.2 334.53 497.5 525.5 62 81.35 117.6 167.02 167 257 16.2 31.42 31 63.42 44.5 96"/><path fill="#5c9044" d="M15053.5 10313.5c1 16.8 1.3 33.8 1 51q0 48.6-10.5 96c-12.5 41.9-27.2 82.9-44 123-16 29.9-34.3 58.3-55 85-47.1 59.8-100.3 113.6-159.5 161.5q-150 118.5-324 201c-94.6 44.4-191.2 83.7-290 118-151.2 51.2-305.2 92.8-462 125-298.9 61.1-601.2 96.1-907 105-79.3 1.4-158.7 1.7-238 1a924 924 0 0 1-50-2 121.4 121.4 0 0 1-26-19c-46.6-46.6-91.8-94.5-135.5-143.5a396 396 0 0 0-42.5-39.5c-5.6-2.8-11.2-2.8-17 0-3.1 1.1-5.6 2.9-7.5 5.5 0 1.8.7 3.4 2 5 19.5 25.2 40.2 49.5 62 73 83.5 89.5 169.7 176.3 258.5 260.5l41 35a41.4 41.4 0 0 0 15 8.5q15.75-6.9 27-19.5c-7.6-10-16.3-19-26-27-24.6-19.6-49-39.6-73-60-6.2-5.6-11.7-11.7-16.5-18.5-.7-1.3-.5-2.5.5-3.5 116.7 3.5 233.4 1.5 350-6 215.7-12.6 430.4-35.2 644-68 110.2-16.3 218.8-39.3 326-69 31-9.7 61.7-20.4 92-32l187-73a2087 2087 0 0 1 85-30c27.9-9.7 56.6-15.8 86-18.5 22.8.6 35.6 12.3 38.5 35q3.15 36.6-6 72c-36.9 127.7-105.1 235.5-204.5 323.5-85.9 70.2-183.2 116.5-292 139-40.6 8.5-81.6 14.1-123 17a5028 5028 0 0 0-140 8c-121.7 2.9-243.4 1.5-365-4l-467-25c-351.1-17.8-702.4-27.3-1054-28.5-244.5.2-488.8 6-733 17.5a4414 4414 0 0 0-805 145l-103 30-364 112c-109.63 32.7-220.63 61.1-333 85a3605 3605 0 0 1-518 68c-62.94 3.9-125.94 6.5-189 8l-614 10c-95.01.9-190.01.5-285-1-88.53-1.6-176.7-8.1-264.5-19.5-203.76-33.5-408.59-58-614.5-73.5-172.89-13.4-345.89-15-519-5-83.9 6.4-167.24 16.7-250 31-82.14 15.4-162.14 38-240 68q-95.06 38.25-177 99c-101.88 78.9-164.04 182-186.5 309.5-16.24 100.9-18.9 202.3-8 304q16.5 167.55 69 327c22.84 60.5 58.67 112 107.5 154.5 45.9 39.6 96.57 72.3 152 98a1290 1290 0 0 0 179 67 2504 2504 0 0 0 364 71c194.68 21.8 390.01 33.4 586 35q130.5 1.05 261 0l785-27c93.81-5.5 187.47-12.9 281-22l461-50 347-32c470.48-46.5 936.5-120.5 1398-222l204-49c74.5-8.8 148.9-19.2 223-31l496-83q89.7-13.95 180-24c77.2-22.7 153.2-48.4 228-77l290-114c79.9-29.2 160.9-54.6 243-76 97.9-24.3 197.2-38.8 298-43.5h13v69a4704 4704 0 0 0-195.5 250l-209 286a2368 2368 0 0 1-213.5 242.5q-91.35 87.45-195 159c-118.5 81.5-240.5 157.8-366 229l-334 187-146 84c-77.2 41.7-156.2 79-237 112l-126 49-170 60-323 107q-102.45 35.1-204 72a6730 6730 0 0 1-823 223c-143.96 29.1-288.63 54.8-434 77-135.24 20-270.9 36.7-407 50-350.38 34.7-701.38 61.3-1053 80-671.18 35.9-1342.84 50.9-2015 45l-598-12q-292.97-25.5-585-60a7937 7937 0 0 1-672-107c-193.16-45.5-387.5-85.5-583-120q-304.82-52.2-609-108c-152.71-28.3-304.04-62.7-454-103-106.89-30-211.89-65.3-315-106-110.28-44.5-214.28-99.8-312-166-65.86-45.8-127.03-97.7-183.5-155.5q-95.82-107.85-166-234-75.16-137.7-126-285-74.26-218.85-110-447c-32.68-211.3-48.51-423.9-47.5-638 .11-200 11.61-399.3 34.5-598-.07-64.9 3.6-129.5 11-194a5634 5634 0 0 1 90-547q122.08-578.4 335-1128a5218.6 5218.6 0 0 1 344-718c84.4-145.17 172.07-288.17 263-429a4691 4691 0 0 1 330-447 2661 2661 0 0 1 285.5-289.5c94.19-80.62 195.85-150.62 305-210a9.2 9.2 0 0 1 9 2 56.1 56.1 0 0 1 9.5 29.5 427.7 427.7 0 0 1-7 116l-97 343a4395 4395 0 0 0-58 256 1431 1431 0 0 0-20 169 115.7 115.7 0 0 0 33.5-1.5 17.8 17.8 0 0 0 5.5-4.5 760 760 0 0 0 25-59c23.11-68.86 44.44-138.2 64-208a7908 7908 0 0 0 161-704c4.58-5.25 9.74-9.75 15.5-13.5a3450 3450 0 0 1 117-71l26-18a102 102 0 0 0 11.5-12.5 111.2 111.2 0 0 0-32.5-73.5c-6.53-5.05-13.86-6.72-22-5a115 115 0 0 0-13 3 296 296 0 0 0-35 19l-46 32c-3.24 2.58-6.74 3.41-10.5 2.5l2.5-101.5q-.57-30.78-1.5-61.5c5.14-4.94 11.3-7.77 18.5-8.5a531 531 0 0 1 76-6q45-1.01 90 0l758 25 1064 22c245.12 4.84 490.12 1.5 735-10q334.48-15.44 669-30 148.45-5.95 297-9l640-3 972-19c189.71-1.83 379.38.17 569 6 30.69 1 61.36 2.5 92 4.5 30.2 71.42 67.37 138.75 111.5 202a2057 2057 0 0 0 170 204 11560 11560 0 0 0 179 183c67.62 68.94 132.29 140.27 194 214 109.43 131.74 201.09 275.4 275 431q10.18 23.55 18 48a24.7 24.7 0 0 1 1 12c-.56.52-1.23.86-2 1q-10.29-5.79-18-15a541 541 0 0 0-45.5-50.5c-71.27-57.14-149.27-103.8-234-140a1883 1883 0 0 0-101-40 2644 2644 0 0 0-377-95 6586 6586 0 0 0-158-27l-298-46a24569 24569 0 0 0-743-115 8882 8882 0 0 0-986-81c-251.93-9-503.93-12.33-756-10q-118.86 2.34-237 15a1361.4 1361.4 0 0 0-189 40 2276 2276 0 0 0-218 79l-211 92a4096 4096 0 0 1-194 77 2168 2168 0 0 1-100 32 2266 2266 0 0 1-156 33 26800 26800 0 0 1-320 51 7281 7281 0 0 0-197 35 2695 2695 0 0 0-111 27 305.8 305.8 0 0 0-62 24.5c-1.23 2.34-.56 4.18 2 5.5 6.87 3.94 13.87 7.6 21 11l193 74a529.5 529.5 0 0 1 66 32 2171 2171 0 0 1 141 124 8657 8657 0 0 1 242.5 253.5 5900 5900 0 0 0 157.5 158.5c51.7 48.72 106.04 94.06 163 136 169.12 121.95 346.45 231.62 532 329 275.97 144 560.64 265.7 854 365 221.83 75.4 447.16 139 676 191a2873 2873 0 0 1 203 21l322 49c73.53 6.1 147.2 9.7 221 11 134 2.1 268 1.7 402-1l430-12c33.39-2.3 66.73-5.3 100-9l270-31 114-34q64.05-25.95 120-66l53-39q65.57-53.1 132-105a195.4 195.4 0 0 1 46-26c5.99-1.2 11.66-.5 17 2a1683 1683 0 0 0 110.5 107.5c.32 1.4-.02 2.7-1 4-23.85 34.2-48.85 67.5-75 100a3728 3728 0 0 1-150.5 173.5c-59.09 52.6-123.76 97.2-194 134a1697 1697 0 0 1-229 98 3081 3081 0 0 1-416 109 6194 6194 0 0 1-575 79 9895 9895 0 0 1-916 36.5q-640.6-.9-1278-64.5l-157-17.5c.24 3.1 1.07 6.1 2.5 9a72.5 72.5 0 0 0 38.5 27.5 2119 2119 0 0 0 294 51 8260 8260 0 0 0 337 27l422 20c373.44 11 746.44 2.7 1119-25 186.09-14.3 371.42-35.3 556-63 161-23.8 319.67-57.8 476-102q216.42-66.45 411-183 50.11-31.5 96-69c12.64-10.9 24.81-22.4 36.5-34.5l132-162 98-125q136.05 110.7 289.5 196.5c181.7 100.4 370 184.4 565 252 126.8 42.4 256.1 75.7 388 100a930 930 0 0 1 92 17c77.5 13 155.5 22.3 234 28a7660 7660 0 0 0 434 13q798.75-.6 1596-48l562-43c125.3-10.5 249.6-27.9 373-52a1848.5 1848.5 0 0 0 346-108c151.8-66.7 296.8-145.1 435-235 101-64.8 197.3-136 289-213.5"/><path fill="#fefefe" d="M5843.5 8393.5q381.15-1.62 762 13.5a20292 20292 0 0 1 534 29 9193 9193 0 0 1 573 67 48708 48708 0 0 1 1023 163 2064.7 2064.7 0 0 1 480 128 1178.8 1178.8 0 0 1 214 115 598 598 0 0 1 141.5 136.5c57.75 85.28 88.75 179.61 93 283 1.91 79.73-7.43 158.06-28 235a1297.4 1297.4 0 0 1-127 297c-105.13 179.9-239.3 335.4-402.5 466.5-59.49 47.1-123.49 87.4-192 121-30.23 14.3-61.56 25.4-94 33.5l.5-280c24.32-249.46-10.02-490.13-103-722-30.28-73.93-69.28-142.6-117-206a528.3 528.3 0 0 0-95.5-93.5c-30.52-21.59-63.85-37.26-100-47a530.5 530.5 0 0 0-133-78c-73.1-29.24-148.76-49.58-227-61a1668 1668 0 0 0-248.5-17.5 2458 2458 0 0 0-332.5 23.5 2983.8 2983.8 0 0 0-687 181 1894 1894 0 0 0-239 118 991 991 0 0 0-141 103q-49.19 44.15-82.5 100.5a236 236 0 0 0-19 45c-32.5 39.9-56.5 84.57-72 134-17.24 61.36-27.24 124.03-30 188-1.02 26.32-1.52 52.66-1.5 79l3 197c-.15 31.4-1.15 62.7-3 94l-156-65.5a20784 20784 0 0 1-469-192c-127.34-54.67-250.67-116.67-370-186q-416.13-251.94-739.5-619.5a4450 4450 0 0 1-72-87 490.7 490.7 0 0 0-78.5-70.5 1648 1648 0 0 1-117-85c-27.29-23.46-51.96-49.29-74-77.5a5975.5 5975.5 0 0 0 845-210.5 3225 3225 0 0 0 187-75c78.84-35.83 158.17-70.5 238-104a1185 1185 0 0 1 127-43c36.75-9.9 74.09-16.57 112-20 72.72-5.66 145.39-9.16 218-10.5"/><path fill="#627c4f" d="M14770.5 8472.5c.9.71 1.2 1.71 1 3-26.5.33-52.8 0-79-1 26.4.66 52.4-.01 78-2"/><path fill="#5c9044" d="m14581.5 8544.5 261 .5 117 74c49.9 34.97 81.1 82.47 93.5 142.5a753 753 0 0 1 14.5 176c-.5 57.7-2.1 115.37-5 173-11.1.74-21.5-1.76-31-7.5a550.7 550.7 0 0 0-99-71 671 671 0 0 0-108-44c-93.6-26.04-188.9-43.04-286-51-104.5-8.88-209.1-13.88-314-15l-100.5-.5-506.5 5.5a7337 7337 0 0 0-957 77 7328 7328 0 0 0-608 123l-224 58-432 118a6960 6960 0 0 1-320 78 5774 5774 0 0 1-343 58c-94.6 12.54-189.6 20.87-285 25-72.8 3.14-145.4 1.47-218-5-53.7-4.61-106-15.61-157-33-35-12.36-65.8-31.19-92.5-56.5l-1.5-3q198-88.78 396-178.5c128.2-57.45 257.6-112.11 388-164a4538 4538 0 0 1 366-124l508-135a5212 5212 0 0 1 630-125 9794 9794 0 0 1 740-75 2792 2792 0 0 1 234.5-3.5z"/><path fill="#fefefe" d="M14199.5 8970.5q135-1.45 270 4.5c91.3 4.05 181.7 15.72 271 35 163.7 36.45 287.2 127.28 370.5 272.5a807 807 0 0 1 97 303q21.75 190.25-27 375c-28.2 105-74.5 201-139 288q-51.75 63.75-115.5 115.5a1740.4 1740.4 0 0 1-452 264c-17.2 6.3-34.5 12.3-52 18-10.4 3.6-21.1 6.4-32 8.5 8.2-152 9.1-304 2.5-456a2122 2122 0 0 0-28-240c-14.5-77.5-36.2-152.83-65-226-57.2-139.22-149.7-248.39-277.5-327.5-49.2-29.45-100.9-53.78-155-73-57.2-16.25-115.5-25.25-175-27a2161 2161 0 0 0-251 8c-257.2 26.61-479.2 128.27-666 305-93.6 91.16-175.4 191.33-245.5 300.5a3106 3106 0 0 0-178 320l-81 173c-32.2 60.1-65.2 119.8-99 179-45 83.9-81.6 171.3-110 262l-23.5 78q-312 2.85-624 1.5c-124.8-1.1-249.4-5.4-374-13a3302 3302 0 0 1-454-58c-247.5-51.6-480.8-140.3-700-266q-112.5-54.75-222-114a1252 1252 0 0 1-189-128 851 851 0 0 1-108.5-110.5 477 477 0 0 1-26.5-37.5 794.4 794.4 0 0 0 126.5-124.5c101.52-127.93 184.52-267.6 249-419a247.7 247.7 0 0 0 19-70c3.2-32.62 5.86-65.29 8-98 1.19-21.1 6.85-40.77 17-59q18.9-24.09 49.5-28.5c16.88-2.58 33.55-1.58 50 3 44.57 29.61 92.57 52.28 144 68a1131 1131 0 0 0 206 41c67.3 7.24 134.8 10.41 202.5 9.5a3230.5 3230.5 0 0 0 824.5-116.5c203.9-62.61 409.2-121.28 616-176 266.4-70.69 535.8-127.69 808-171a7200 7200 0 0 1 922-83l329-4zm-7247 404 80 3.5a176.4 176.4 0 0 1 93 31c34.33 11 66 27 95 48a512 512 0 0 1 42 34q43.05 42.54 87 84a480 480 0 0 0 52 40.5c1 23.66 1.33 47.32 1 71a104.7 104.7 0 0 0-21 3.5 227 227 0 0 0-48 31c-7.38.67-14.71 1.67-22 3-24.67.67-49.33.67-74 0a2582 2582 0 0 0-112-3 1166 1166 0 0 0-104-78 854 854 0 0 1-31-24c-46.7-38.06-66.87-87.23-60.5-147.5 3.89-33.22 11.39-65.55 22.5-97m6158 242 105 .5a689 689 0 0 0 51.5 56.5c17.7 19.07 31.4 40.73 41 65 5.8 17.55 9.5 35.55 11 54a1006 1006 0 0 1 0 65c-4.3 18.27-15.4 30.1-33.5 35.5q-36 1-72 0c-33.4-26.68-65.5-54.84-96.5-84.5-18.1-18.62-31.5-40.29-40-65-6.5-28.67-3.5-56.33 9-83a285.5 285.5 0 0 1 24.5-44m-4947 311a2763 2763 0 0 1 105 1 467 467 0 0 0 25.5 37c15.81 18.3 31.14 37 46 56q25.27 36.6 30 81c2.68 22.7 3.02 45.3 1 68-22.55 12.9-43.72 27.7-63.5 44.5-22.26 15.2-46.92 23.2-74 24q-18 1.05-36 0a3522 3522 0 0 0-65.5-76.5c-23.61-30.2-36.95-64.6-40-103-2.2-32.1-1.53-64.05 2-96 1.07-.69 2.23-1.19 3.5-1.5q15.06-.9 30-3a38.4 38.4 0 0 0 13-4c3.29-4.75 6.46-9.58 9.5-14.5 4.4-4.56 8.9-8.9 13.5-13m-1073 139a429.8 429.8 0 0 1 97 21.5c44.72 17.5 69.55 50.4 74.5 98.5a435 435 0 0 1 2 88q-25.53 20.85-58.5 25.5a1054 1054 0 0 1-115 7.5 915 915 0 0 1-39.5-71 600 600 0 0 1-12-31c-5.89-22.1-3.89-43.4 6-64 4.16-9 8.82-17.7 14-26zm6776 132c25.3-1.3 50.3.9 75 6.5a687.6 687.6 0 0 1 87.5 107.5 340 340 0 0 1 16.5 31c-8.5 29.3-18.7 58-30.5 86-22.7 51.7-56.8 94.2-102.5 127.5a1202 1202 0 0 1-39 28q-75.75-3.15-144-36c-48.5-26.8-79.4-67.3-92.5-121.5-3.7-16-6.2-32.1-7.5-48.5a113.3 113.3 0 0 1 17-19l40-36 150-119a214.5 214.5 0 0 1 30-6.5"/><path fill="#4c524a" d="M15053.5 10313.5c.1-.5.4-.9 1-1 1.3 17.5 1.3 34.8 0 52 .3-17.2 0-34.2-1-51"/><path fill="#010101" d="M9147.5 11170.5c6.06-.3 12.06 0 18 1 2.57 12.5-.76 23-10 31.5a123.2 123.2 0 0 1-23 12l-127 47-259 108a86583 86583 0 0 0-534 216l-291 124a371 371 0 0 1-46 22c-19.13 3-29.13-5.1-30-24.5a17.4 17.4 0 0 1 6-14.5l92-44 172-75c311.61-130.1 624.94-255.4 940-376a1336 1336 0 0 1 92-27.5"/><path fill="#996452" d="M14251.5 11622.5q118.35-1.2 216 64.5 55.35 39.75 85.5 100.5c15.8 32.9 20.5 67.2 14 103-16.7 53-41 102-73 147-70 99-160.2 173.5-270.5 223.5q-56.55 23.85-117 36c-137 19.2-274.7 31.6-413 37q-210 7.2-420 3l-557-19c-157.3-5.1-314.7-5.7-472-2-108.6 22.2-218.2 35.5-329 40a4479 4479 0 0 1-142 5l-433 5a3045 3045 0 0 0-420 35l-191 40c-226.3 46.3-453.7 87-682 122q-355.93 54.15-711 114c-148.67 25.9-296.67 55.2-444 88l-662 1a990.6 990.6 0 0 1-209 19.5c-38.03-.2-76.03-1.4-114-3.5l-230-14a4600.5 4600.5 0 0 0-669 28c-166.69 18.6-330.36 51.9-491 100a2042 2042 0 0 0-117.5 42.5 542 542 0 0 0-.5 33l529-.5a3426 3426 0 0 1 310.5-17.5 1494 1494 0 0 1 214.5 14.5q92.94 13.8 180 48l134 55a1121.4 1121.4 0 0 0 171 38c135.76 18.7 272.1 31.4 409 38a7739 7739 0 0 0 740 3q144.66-6.6 288-27l185-36a5356 5356 0 0 1 314-45l320-36c150.3-16.2 299.7-38.8 448-68l90-20 421-107 724-178 267-70 356-100a2274 2274 0 0 1 503-75 6795 6795 0 0 1 285.5-6.5l202.5 2c2.1 24.1 3.8 48.3 5 72.5 0 8.9-.8 17.8-2.5 26.5-14.2 32-29.2 63.7-45 95-21.9 42.9-55.1 73.7-99.5 92.5a907 907 0 0 1-65 26c-37.1 21-76.8 35.4-119 43q-74.4 13.65-150 15a2762 2762 0 0 1-135-1l-235-11a1758 1758 0 0 0-204 1 571.4 571.4 0 0 0-142 27l-412 140-140 46q-161.1 53.7-330 75l-340 37q-116.4 13.8-231 39l-667 152c-129.7 29.8-259.04 61.1-388 94l-691 35c-282.78 42.6-566.45 78.3-851 107-447.02 43.7-895.02 60-1344 49q-269.77-7.5-537-45a2226.5 2226.5 0 0 1-329-72c-66.66-20.4-130.66-47.1-192-80-45.71-25-86.87-56.2-123.5-93.5-10.38-12-20.38-24.4-30-37a2910 2910 0 0 0-37-61c-18.29-35.9-31.63-73.5-40-113a1042.3 1042.3 0 0 1-20.5-211.5 1462.5 1462.5 0 0 1 41.5-343.5c33.12-60.8 74.29-115.6 123.5-164.5 75.67-70.8 165-115.2 268-133a4070 4070 0 0 1 655-71 2599 2599 0 0 1 468 29 1431 1431 0 0 1 170 38 407 407 0 0 0 38 6 2615 2615 0 0 0 137 10c212.23 9.1 424.57 14.1 637 15 217.03 1.8 434.03.1 651-5a3986 3986 0 0 0 420-31 1922 1922 0 0 0 175-32l281-80 621-166 290-84q109.5-26.7 222-33c25-1.7 50-3 75-4l251-6c54.5-1.3 108.8-5 163-11 122.7-18.6 246-29.6 370-33a6846 6846 0 0 1 538 8l200 11 510 32c153.9 9.5 307.9 14.7 462 15.5 125.2.1 250.2-5.1 375-15.5a1626.5 1626.5 0 0 0 249-40c90.5-21.8 174.1-58.5 251-110 4.8-3 9.1-6.5 13-10.5"/><path fill="#4e554b" d="M12682.5 12765.5c4.5-1 9.1-1.3 14-1 .3 23.5 0 46.8-1 70v-69z"/><path fill="#5c9044" d="M11099.5 14314.5c5.7-.2 11.3 0 17 .5 2.8 2.6 3.7 5.7 2.5 9.5-3.1 6.9-6.8 13.6-11 20l-26 32-47.5 49.5-121.5 115.5-120 133c-21 23-43.9 43.9-68.5 62.5q-76.95 53.4-153 108l-408 298c-123.8 88.1-251.16 171.1-382 249-141.18 81.9-287.51 152.2-439 211-216.58 82.7-438.24 149.7-665 201a7370 7370 0 0 1-659 116c-340.98 43-683.31 68.6-1027 77-476.26 11.6-951.93-.4-1427-36a16050 16050 0 0 1-1585-195c-310.49-54.1-618.49-119.4-924-196a7858 7858 0 0 1-582-171 4759 4759 0 0 1-538-218 2772.5 2772.5 0 0 1-351-203c-92.54-63.2-178.04-135.3-256.5-216.5-82.54-86.2-149.87-183.2-202-291a1325 1325 0 0 0-19.5-44c88.86 72.5 185.86 133.7 291 183.5 76.3 35.4 154.97 66.1 236 92 91.21 28.1 183.54 52.7 277 74a9124 9124 0 0 0 321 62 29579 29579 0 0 1 537 90l133 26c175.87 39.9 352.54 75.6 530 107 176.02 29.6 352.69 56 530 79 478.51 59.3 958.84 96.3 1441 111 353.69 10.5 707.35 9.8 1061-2 568.72-17.6 1136.05-55.6 1702-114 316.68-32.3 632.02-74.7 946-127a7476 7476 0 0 0 461-93l103-27c134.72-39.8 268.72-82.5 402-128 195.8-67.5 389.8-140.8 582-220 69.2-28.9 137.2-60.6 204-95 48.8-28.6 97.2-57.9 145-88q30.9-17.7 63-33z"/><path fill="#adb87d" d="M13180.5 17690.5v22H-.5v-1742c14.76-86.4 34.59-171.7 59.5-256q53.93-200.25 137-390c120.91-273.2 303.08-496.4 546.5-669.5l24-20a2403 2403 0 0 0 102-101c15.74-15.1 32.07-29.4 49-43a409.9 409.9 0 0 1 121-65.5c86.05 218.2 219.05 402.4 399 552.5a1921.5 1921.5 0 0 0 301 203c107.36 57.7 217.36 109.3 330 155a7140 7140 0 0 0 418.5 151.5l415.5 134.5c287.23 90.8 579.23 164.5 876 221 305.49 56.2 612.49 102.6 921 139 570.29 68.4 1142.62 105.1 1717 110 410.17 3.8 819.51-12.9 1228-50 323.51-29.2 644.17-77.2 962-144 234.43-49.4 464.1-115 689-197 197.53-72.6 385.2-164.6 563-276 122.26-77.6 241.9-159 359-244l312-228 182-127c38.7-27.7 75.4-58 110-91a4321 4321 0 0 0 176.5-184.5c30.2-30.9 61.1-61.1 92.5-90.5a652 652 0 0 1 142-98 6.2 6.2 0 0 1 5 0l171 101c138.4 81.8 274.4 167.2 408 256 129.3 86.9 252.3 182.2 369 286 89.4 81.4 170.9 169.6 244.5 264.5 135.2 178 256.2 365.6 363 563 105.5 196.3 188.2 401.9 248 617a3712 3712 0 0 1 112 626c19 204.6 28.1 409.6 27.5 615"/></svg>