<svg xmlns="http://www.w3.org/2000/svg" viewBox="0 0 100 100"><svg xmlns="http://www.w3.org/2000/svg" xml:space="preserve" viewBox="0 0 100 100"><g clip-path="url(#a)"><rect width="100" height="100" fill="url(#b)" rx="12.5"/><path fill="url(#c)" fill-opacity=".65" d="M0 12.5C0 5.596 5.596 0 12.5 0h75C94.404 0 100 5.596 100 12.5v41.667H0z"/><g filter="url(#d)"><path fill="url(#e)" fill-opacity=".75" d="M91.667 14.583a6.25 6.25 0 0 0-6.25-6.25H14.583a6.25 6.25 0 0 0-6.25 6.25v70.834a6.25 6.25 0 0 0 6.25 6.25h70.834a6.25 6.25 0 0 0 6.25-6.25z"/></g><path fill="url(#f)" fill-opacity=".25" d="M0 12.5C0 5.596 5.596 0 12.5 0h75C94.404 0 100 5.596 100 12.5v41.667H0z"/><path fill="url(#g)" d="M54.182 15.625C72.695 15.625 87.79 31.033 87.79 50S72.725 84.375 54.181 84.375c-18.543 0-33.578-15.44-33.578-34.375s15.065-34.375 33.579-34.375m-24.08 29.734h11.556a13.7 13.7 0 0 1 3.108-4.989 13.3 13.3 0 0 1 4.878-3.18V25.372c-9.892 1.888-17.667 9.87-19.542 19.988M58.477 50c0-2.413-1.936-4.394-4.295-4.394s-4.296 1.98-4.296 4.394c0 2.413 1.936 4.394 4.295 4.394s4.296-1.98 4.296-4.394m.242-24.629v11.82a13.3 13.3 0 0 1 4.878 3.179 13.7 13.7 0 0 1 3.108 4.989h11.556a25.25 25.25 0 0 0-6.753-13.08A24.33 24.33 0 0 0 58.72 25.37m19.542 29.27H66.706a13.7 13.7 0 0 1-3.11 4.989 13.3 13.3 0 0 1-4.877 3.18v11.819a24.33 24.33 0 0 0 12.79-6.907 25.25 25.25 0 0 0 6.752-13.08M49.644 74.63V62.81a13.3 13.3 0 0 1-4.878-3.179 13.7 13.7 0 0 1-3.108-4.989H30.102c1.875 10.118 9.65 18.1 19.542 19.988"/><rect width="8.333" height="20.833" x="4" y="21" fill="url(#h)" rx="4.167"/><rect width="8.333" height="20.833" x="4" y="58.5" fill="url(#i)" rx="4.167"/></g><defs><linearGradient id="b" x1="50" x2="50" y1="0" y2="100" gradientUnits="userSpaceOnUse"><stop stop-color="#587178"/><stop offset=".74" stop-color="#162A47"/><stop offset="1" stop-color="#5F528E"/></linearGradient><linearGradient id="c" x1="50" x2="50" y1="0" y2="54.167" gradientUnits="userSpaceOnUse"><stop stop-color="#C5CDEF"/><stop offset="1" stop-color="#3E5A97"/></linearGradient><linearGradient id="e" x1="50" x2="50" y1="8.333" y2="91.667" gradientUnits="userSpaceOnUse"><stop stop-color="#325269"/><stop offset="1" stop-color="#190732"/></linearGradient><linearGradient id="f" x1="50" x2="50" y1="0" y2="54.167" gradientUnits="userSpaceOnUse"><stop stop-color="#C5CDEF"/><stop offset="1" stop-color="#3E5A97"/></linearGradient><linearGradient id="g" x1="54.197" x2="54.197" y1="15.625" y2="84.375" gradientUnits="userSpaceOnUse"><stop stop-color="#fff"/><stop offset=".577" stop-color="#8FAAED"/><stop offset=".784" stop-color="#7260C3"/><stop offset="1" stop-color="#BACBF3"/></linearGradient><linearGradient id="h" x1="8.167" x2="8.167" y1="21" y2="41.833" gradientUnits="userSpaceOnUse"><stop stop-color="#fff"/><stop offset="1" stop-color="#BAD3EF"/></linearGradient><linearGradient id="i" x1="8.167" x2="8.167" y1="58.5" y2="79.333" gradientUnits="userSpaceOnUse"><stop stop-color="#B3C4E3"/><stop offset="1" stop-color="#705EB3"/></linearGradient><clipPath id="a"><path fill="#fff" d="M0 0h100v100H0z"/></clipPath><filter id="d" width="87.121" height="90.909" x="8.333" y="8.333" color-interpolation-filters="sRGB" filterUnits="userSpaceOnUse"><feFlood flood-opacity="0" result="BackgroundImageFix"/><feBlend in="SourceGraphic" in2="BackgroundImageFix" result="shape"/><feColorMatrix in="SourceAlpha" result="hardAlpha" values="0 0 0 0 0 0 0 0 0 0 0 0 0 0 0 0 0 0 127 0"/><feOffset dx="3.788" dy="7.576"/><feGaussianBlur stdDeviation="7.576"/><feComposite in2="hardAlpha" k2="-1" k3="1" operator="arithmetic"/><feColorMatrix values="0 0 0 0 0.0962936 0 0 0 0 0.0427145 0 0 0 0 0.317308 0 0 0 0.55 0"/><feBlend in2="shape" result="effect1_innerShadow_93_12"/></filter></defs></svg><style>@media (prefers-color-scheme:light){:root{filter:none}}@media (prefers-color-scheme:dark){:root{filter:none}}</style></svg>