<svg xmlns="http://www.w3.org/2000/svg" xml:space="preserve" viewBox="0 0 512 512"><path d="M83.478 406.261H16.696C7.479 406.261 0 398.782 0 389.565V289.391c0-9.217 7.479-16.696 16.696-16.696h66.783c9.217 0 16.696 7.479 16.696 16.696v100.174c-.001 9.217-7.48 16.696-16.697 16.696" style="fill:#0a0f1a"/><path d="M512 89.043c0-27.619-22.468-50.087-50.087-50.087H116.87c-27.619 0-50.087 22.468-50.087 50.087V258.14H512z" style="fill:#1e293b"/><path d="M83.478 239.304H16.696C7.479 239.304 0 231.826 0 222.609V122.435c0-9.217 7.479-16.696 16.696-16.696h66.783c9.217 0 16.696 7.479 16.696 16.696v100.174c-.001 9.217-7.48 16.695-16.697 16.695" style="fill:#1e293b"/><path d="M66.783 256v166.957c0 27.619 22.468 50.087 50.087 50.087h345.043c27.619 0 50.087-22.468 50.087-50.087V256z" style="fill:#0a0f1a"/><path d="M428.522 339.478c-9.217 0-16.696-7.479-16.696-16.696V189.217c0-9.217 7.479-16.696 16.696-16.696s16.696 7.479 16.696 16.696v133.565c-.001 9.218-7.479 16.696-16.696 16.696" style="fill:#fff"/><path d="M411.826 256v66.783c0 9.217 7.479 16.696 16.696 16.696s16.696-7.479 16.696-16.696V256z" style="fill:#a8b2c9"/><path d="M320.034 301.991c8.75-13.201 13.879-29.001 13.879-45.991s-5.129-32.79-13.879-45.991l42.379-42.379c6.521-6.521 6.521-17.087 0-23.609s-17.087-6.521-23.609 0L296.426 186.4c-13.201-8.75-29.001-13.879-45.991-13.879s-32.79 5.129-45.991 13.879l-42.379-42.379c-6.521-6.521-17.087-6.521-23.609 0s-6.521 17.087 0 23.609l42.379 42.379c-8.75 13.201-13.879 29.001-13.879 45.991s5.129 32.79 13.879 45.991l-42.379 42.379c-6.521 6.521-6.521 17.087 0 23.609s17.086 6.522 23.609 0l42.379-42.379c13.201 8.75 29.001 13.879 45.991 13.879s32.79-5.129 45.991-13.879l42.379 42.379c6.521 6.521 17.086 6.522 23.609 0 6.521-6.521 6.521-17.087 0-23.609zM200.348 256c0-27.619 22.468-50.087 50.087-50.087s50.087 22.468 50.087 50.087-22.468 50.087-50.087 50.087-50.087-22.468-50.087-50.087" style="fill:#fff"/><path d="M300.522 256c0 27.619-22.468 50.087-50.087 50.087S200.348 283.619 200.348 256h-33.391c0 16.99 5.129 32.79 13.879 45.991l-42.379 42.379c-6.521 6.521-6.521 17.087 0 23.609s17.086 6.522 23.609 0l42.379-42.379c13.201 8.75 29.001 13.879 45.991 13.879s32.79-5.129 45.991-13.879l42.379 42.379c6.521 6.521 17.086 6.522 23.609 0 6.521-6.521 6.521-17.087 0-23.609l-42.379-42.379c8.751-13.201 13.879-29.001 13.879-45.991z" style="fill:#a8b2c9"/><circle cx="250.435" cy="256" r="16.696" style="fill:#fff"/><path d="M250.435 272.696c9.22 0 16.696-7.475 16.696-16.696H233.74c-.001 9.22 7.474 16.696 16.695 16.696" style="fill:#a8b2c9"/></svg>